<svg width="24" height="24" viewBox="0 0 24 24" fill="none" xmlns="http://www.w3.org/2000/svg">
<path fill-rule="evenodd" clip-rule="evenodd" d="M7.51998 1.33337H16.48C19.8933 1.33337 22.6666 4.10671 22.6666 7.52004V16.48C22.6666 19.8968 19.8968 22.6667 16.48 22.6667H7.51998C4.10665 22.6667 1.33331 19.8934 1.33331 16.48V7.52004C1.33331 4.10324 4.10318 1.33337 7.51998 1.33337ZM7.30665 3.46671C5.18587 3.46671 3.46665 5.18594 3.46665 7.30671V16.6934C3.46665 18.816 5.18398 20.5334 7.30665 20.5334H16.6933C18.8141 20.5334 20.5333 18.8141 20.5333 16.6934V7.30671C20.5333 5.18404 18.816 3.46671 16.6933 3.46671H7.30665ZM18.9333 6.40004C18.9333 5.66366 18.3364 5.06671 17.6 5.06671C16.8636 5.06671 16.2666 5.66366 16.2666 6.40004C16.2666 7.13642 16.8636 7.73338 17.6 7.73338C18.3364 7.73338 18.9333 7.13642 18.9333 6.40004ZM12 6.66671C14.9455 6.66671 17.3333 9.05452 17.3333 12C17.3333 14.9456 14.9455 17.3334 12 17.3334C9.05446 17.3334 6.66665 14.9456 6.66665 12C6.66665 9.05452 9.05446 6.66671 12 6.66671ZM8.79998 12C8.79998 10.2327 10.2327 8.80004 12 8.80004C13.7673 8.80004 15.2 10.2327 15.2 12C15.2 13.7674 13.7673 15.2 12 15.2C10.2327 15.2 8.79998 13.7674 8.79998 12Z" fill="black"/>
<mask id="mask0" mask-type="alpha" maskUnits="userSpaceOnUse" x="1" y="1" width="22" height="22">
<path fill-rule="evenodd" clip-rule="evenodd" d="M7.51998 1.33337H16.48C19.8933 1.33337 22.6666 4.10671 22.6666 7.52004V16.48C22.6666 19.8968 19.8968 22.6667 16.48 22.6667H7.51998C4.10665 22.6667 1.33331 19.8934 1.33331 16.48V7.52004C1.33331 4.10324 4.10318 1.33337 7.51998 1.33337ZM7.30665 3.46671C5.18587 3.46671 3.46665 5.18594 3.46665 7.30671V16.6934C3.46665 18.816 5.18398 20.5334 7.30665 20.5334H16.6933C18.8141 20.5334 20.5333 18.8141 20.5333 16.6934V7.30671C20.5333 5.18404 18.816 3.46671 16.6933 3.46671H7.30665ZM18.9333 6.40004C18.9333 5.66366 18.3364 5.06671 17.6 5.06671C16.8636 5.06671 16.2666 5.66366 16.2666 6.40004C16.2666 7.13642 16.8636 7.73338 17.6 7.73338C18.3364 7.73338 18.9333 7.13642 18.9333 6.40004ZM12 6.66671C14.9455 6.66671 17.3333 9.05452 17.3333 12C17.3333 14.9456 14.9455 17.3334 12 17.3334C9.05446 17.3334 6.66665 14.9456 6.66665 12C6.66665 9.05452 9.05446 6.66671 12 6.66671ZM8.79998 12C8.79998 10.2327 10.2327 8.80004 12 8.80004C13.7673 8.80004 15.2 10.2327 15.2 12C15.2 13.7674 13.7673 15.2 12 15.2C10.2327 15.2 8.79998 13.7674 8.79998 12Z" fill="white"/>
</mask>
<g mask="url(#mask0)">
<rect width="24" height="24" fill="white"/>
</g>
</svg>
