<svg width="22" height="17" viewBox="0 0 22 17" fill="none" xmlns="http://www.w3.org/2000/svg">
<path fill-rule="evenodd" clip-rule="evenodd" d="M21.1431 1.93939C20.3964 2.27879 19.5915 2.50182 18.7576 2.60848C19.6109 2.09455 20.2703 1.28 20.5806 0.300606C19.7758 0.785455 18.8837 1.12485 17.9431 1.31879C17.177 0.484848 16.1006 0 14.8788 0C12.6 0 10.7382 1.86182 10.7382 4.16C10.7382 4.4897 10.777 4.8097 10.8449 5.1103C7.39275 4.93576 4.31881 3.27758 2.27275 0.766061C1.91396 1.37697 1.71033 2.09455 1.71033 2.85091C1.71033 4.29576 2.4376 5.57576 3.56245 6.30303C2.87396 6.30303 2.23396 6.10909 1.67154 5.81818C1.67154 5.81818 1.67154 5.81818 1.67154 5.84727C1.67154 7.86424 3.10669 9.55152 5.0073 9.9297C4.65821 10.0267 4.28972 10.0752 3.91154 10.0752C3.64972 10.0752 3.3879 10.0461 3.13578 9.99758C3.65942 11.6364 5.18184 12.8582 7.01457 12.8873C5.59881 14.0121 3.80487 14.6715 1.84609 14.6715C1.51639 14.6715 1.18669 14.6521 0.856995 14.6133C2.69942 15.7964 4.89093 16.4848 7.2376 16.4848C14.8788 16.4848 19.0776 10.143 19.0776 4.64485C19.0776 4.46061 19.0776 4.28606 19.0679 4.10182C19.8825 3.52 20.5806 2.78303 21.1431 1.93939Z" fill="black"/>
<mask id="mask0" mask-type="alpha" maskUnits="userSpaceOnUse" x="0" y="0" width="22" height="17">
<path fill-rule="evenodd" clip-rule="evenodd" d="M21.1431 1.93939C20.3964 2.27879 19.5915 2.50182 18.7576 2.60848C19.6109 2.09455 20.2703 1.28 20.5806 0.300606C19.7758 0.785455 18.8837 1.12485 17.9431 1.31879C17.177 0.484848 16.1006 0 14.8788 0C12.6 0 10.7382 1.86182 10.7382 4.16C10.7382 4.4897 10.777 4.8097 10.8449 5.1103C7.39275 4.93576 4.31881 3.27758 2.27275 0.766061C1.91396 1.37697 1.71033 2.09455 1.71033 2.85091C1.71033 4.29576 2.4376 5.57576 3.56245 6.30303C2.87396 6.30303 2.23396 6.10909 1.67154 5.81818C1.67154 5.81818 1.67154 5.81818 1.67154 5.84727C1.67154 7.86424 3.10669 9.55152 5.0073 9.9297C4.65821 10.0267 4.28972 10.0752 3.91154 10.0752C3.64972 10.0752 3.3879 10.0461 3.13578 9.99758C3.65942 11.6364 5.18184 12.8582 7.01457 12.8873C5.59881 14.0121 3.80487 14.6715 1.84609 14.6715C1.51639 14.6715 1.18669 14.6521 0.856995 14.6133C2.69942 15.7964 4.89093 16.4848 7.2376 16.4848C14.8788 16.4848 19.0776 10.143 19.0776 4.64485C19.0776 4.46061 19.0776 4.28606 19.0679 4.10182C19.8825 3.52 20.5806 2.78303 21.1431 1.93939Z" fill="white"/>
</mask>
<g mask="url(#mask0)">
<rect x="-1" y="-4" width="24" height="24" fill="white"/>
</g>
</svg>
